<svg id="Lag_1" data-name="Lag 1" xmlns="http://www.w3.org/2000/svg" viewBox="0 0 202 202"><defs><style>.cls-1{fill:#f2f2f2;}</style></defs><title>insta</title><path class="cls-1" d="M100.72,198.38c-16.23,0-32.47,0-48.7,0-8.47,0-16.85-.84-24.57-4.69q-18.73-9.37-22.73-30a84.2,84.2,0,0,1-1.21-15.69q0-47.09.05-94.18c0-8,.31-16.07,3.48-23.61C13.26,15.35,24.48,6.84,40.31,4.36a95.08,95.08,0,0,1,14.51-.83q46.08,0,92.16,0c8,0,16,.12,23.5,3.05,15.75,6.13,24.67,17.77,27.09,34.46a88.55,88.55,0,0,1,.6,12.5q.11,47.3.17,94.59c0,7.69-.34,15.39-3.2,22.65-5.74,14.61-16.38,23.46-31.84,26.39A76.7,76.7,0,0,1,149,198.34H100.72Zm72.48-94.14c0-11.21,0-20.58,0-29.94a47.07,47.07,0,0,0-.95-9.83c-4.57-21.22-22.48-35.69-44.34-35.75q-27-.07-54,0a44.75,44.75,0,0,0-6.65.43C44.87,32.52,28.85,50.83,28.69,73.49c-.14,18.32-.07,36.65,0,55a43.06,43.06,0,0,0,8.4,26.06c9.25,12.5,21.75,18.68,37.27,18.72,17.52,0,35,0,52.55,0a59.74,59.74,0,0,0,9.25-.7c19.39-3,35.48-20.44,36.78-40.06C173.59,122.47,173,112.43,173.2,104.24Z"/><path class="cls-1" d="M101,41.14q13.44,0,26.88,0c18.69,0,32.87,14.17,32.9,32.84q0,27,0,54c0,18.67-14.2,32.82-32.89,32.85q-26.9,0-53.77,0c-18.83,0-33-14.15-33-32.95q0-26.88,0-53.77c0-18.79,14.17-32.92,33-32.94Zm.11,23.92a35.92,35.92,0,1,0,35.76,36A36.08,36.08,0,0,0,101.09,65.06Zm30.46-3.37a8.83,8.83,0,1,0,8.79-8.86A8.8,8.8,0,0,0,131.55,61.69Z"/><path class="cls-1" d="M124.39,101a23.46,23.46,0,1,1-23.5-23.48A23.45,23.45,0,0,1,124.39,101Z"/></svg>
