<svg id="Lag_1" data-name="Lag 1" xmlns="http://www.w3.org/2000/svg" viewBox="0 0 342 261"><defs><style>.cls-1{fill:#f2f2f2;}</style></defs><title>Tegnebræt 2</title><path class="cls-1" d="M334,220.16c-1.71,2.74-1.75,6.09-3.26,8.91-.59,1.1-1.17,2.2-1.92,3.62-3.64-4-7.11-7.86-10.56-11.71Q273.5,170.9,228.72,120.82c-1.21-1.36-1.68-2.09.05-3.6q48.64-42.39,97.12-85c1.49-1.3,2.07-1.39,3.12.44,2.4,4.17,3.35,8.83,5,13.26Z"/><path class="cls-1" d="M12,45.32c1.93-4,2.58-8.44,4.84-12.34,1.23-2.12,1.82-2,3.49-.53Q68.59,74.8,117,117c1.61,1.41,1.82,2.14.31,3.83Q67.63,176.24,18.11,231.74a7.57,7.57,0,0,1-.86.74c-2.05-2.84-3.06-6.06-4-9.32-.31-1-.06-2.31-1.21-3Z"/><path class="cls-1" d="M172.79,253.49q-60.52,0-121,0a40.52,40.52,0,0,1-18.36-4.66c-2.25-1.13-2.33-1.85-.64-3.72q22.39-24.85,44.63-49.84Q104.7,164.71,132,134.12c1.61-1.82,2.42-1.92,4.26-.27,9.76,8.72,19.66,17.28,29.52,25.89,4.83,4.21,9.73,4.18,14.59-.07,9.93-8.69,19.88-17.35,29.75-26.11,1.47-1.3,2.2-1.43,3.61.15Q263.33,189.41,313.11,245c1.63,1.83,1.91,2.71-.59,3.93a41,41,0,0,1-18.37,4.61Q233.48,253.46,172.79,253.49Z"/><path class="cls-1" d="M173.17,12q60.53,0,121.05,0a39.79,39.79,0,0,1,16.37,3.75c2.25,1,2.24,1.64.4,3.24q-26,22.65-52,45.45Q217.22,101,175.43,137.6c-1.83,1.61-2.78,1.83-4.76.1Q103.5,78.74,36.2,19.94c-3.49-3.06-3.51-3.06.69-4.84A38.45,38.45,0,0,1,52.13,12Q112.66,12,173.17,12Z"/></svg>