<svg id="Layer_1" data-name="Layer 1" xmlns="http://www.w3.org/2000/svg" width="362.3mm" height="56.3mm" viewBox="0 0 1027 159.6"><defs><style>.cls-1{fill:#011ee2;}</style></defs><title>Artboard 1</title><path class="cls-1" d="M64.42,65.61C60.51,65.14,59,62.75,61,60.08a11.25,11.25,0,0,1,3.67-3.24q20.37-10.29,40.87-20.36c7.15-3.5,11.27-1.22,12.65,6.83.37,2.12.11,5,3.56,3.58,17.08-7.26,35.4-11.82,50.65-23,7.76-5.71,15.31-11.7,23-17.52,1.45-1.09,3-2.48,4.66-2.77,1.85-.32,3.89.48,5.85.78-.59,2-.55,4.86-1.89,5.84-6.41,4.69-13,9.16-19.89,13.19C171.25,31,159,39.28,148.05,49.63c-8.62,8.15-18,15.49-27,23.22a23.58,23.58,0,0,0-2.24,2.62c6.72,1.84,8.49,4.18,5.87,10.56s-6.83,12.43-10.33,18.61c-.23.41-.4.86-.89,1.91l17.14-1.73.39,2c-2,.76-4,1.89-6.13,2.22-14.64,2.24-24.41,11.76-33.63,22.16A50,50,0,0,1,85,137.61a6.26,6.26,0,0,1-4.91,1c-1-.28-1.85-2.5-1.94-3.91-.41-6.4,2.52-10.73,8.12-13.45A69.28,69.28,0,0,0,120.1,86.33a12.22,12.22,0,0,0,.68-2.38c.21-1,.34-1.91.58-3.28-5-.74-7.82,2.56-11.16,4.76A38.14,38.14,0,0,1,104.62,88c.77-2.08.95-4.79,2.4-6.14,14.47-13.44,29.15-26.65,43.76-39.94a7.67,7.67,0,0,0,.74-1.53c-8.12,3.23-15.7,6.33-23.34,9.26-6.38,2.45-11.52,5.72-16,11.57-12.42,16.17-29.72,26-48.81,32.33a252.86,252.86,0,0,1-34.63,8.72c-6.16,1.1-12.83.11-19.17-.71A10.94,10.94,0,0,1,.28,92.85C-.89,87.67,1.72,83.71,6,80.51c6.82-5.12,14.94-5.09,22.72-6.53,10.13-1.88,20.26-3.8,30.34-5.9,1.86-.39,3.52-1.69,5.29-2.55,3.33-.79,6.71-1.38,9.93-2.45q17-5.65,34-11.62c2.93-1,5.8-7,3.9-8.47-1.55-1.21-4.66-.46-7.08-.5a3.18,3.18,0,0,0-1.34.64Zm40.35-5.93-.6-1.33c-2.91,1-5.84,2-8.74,3.14C74.74,69.32,54,76.58,31.68,78.79A84,84,0,0,0,10.1,84.2c-2.68,1-5.54,5.32-5.69,8.26C4.18,96.79,9,98.21,12.5,98.07c8.88-.35,18.1-.27,26.49-2.73C51.64,91.63,63.86,86.27,76,81A77.29,77.29,0,0,0,104.77,59.68Z"/><path class="cls-1" d="M289.34,83c-4.32,1.93-9,3.29-12.87,5.91-9,6.14-17.69,12.77-26.31,19.46-2.7,2.1-5.28,2.61-7.46.28s-.95-5,1.24-7c4.65-4.25,9.37-8.42,13.93-12.76a42.41,42.41,0,0,0,3.88-4.9l-.7-1.12c-2.38.78-5.15,1-7.08,2.44q-12.85,9.39-25.26,19.4c-2.47,2-5.21,2.92-6.9.58-1-1.35-.29-5.28,1.06-6.71,3.39-3.57,7.6-6.34,11.45-9.49a13.53,13.53,0,0,0,3.27-3.79c-6.63,0-12.24,3-17.62,6.23-9.59,5.85-19,12-28.59,17.84a5.12,5.12,0,0,1-4.47-.07c-.87-.52-1.55-3-1-3.85,2.21-3.87,4.38-8,7.49-11.1,7.4-7.37,15.33-14.2,23-21.27.29-.27.39-.75-.07-1.83a78.33,78.33,0,0,1-6.08,5.17c-14.87,10.3-29.81,20.51-44.7,30.78-2.83,1.94-6.38,2.43-8-.24-1.18-1.9-.29-5.6.66-8.13.68-1.79,3-2.92,4.56-4.44,3.18-3.2,6.3-6.47,9.45-9.71l-1-1.61c-3.13.67-6.43.92-9.35,2.09-6.77,2.72-13.37,5.89-20,8.88-1.06.48-2.17,1.47-3.16,1.36a51.58,51.58,0,0,1-6.73-1.56c.65-2,.66-5,2.06-6a166.1,166.1,0,0,1,15.32-9.3c3.61-2,7.42-3.73,11.06-5.72,6.35-3.46,9.08-1.91,9.35,5.42,7.29-.25,9.36,3,6,9.87-1.44,2.91-3.39,5.57-4.56,9.14,4.85-2.7,10-5,14.5-8.19,15.64-11,31.27-21.93,46.46-33.49,5-3.82,8.77-9.36,13-14.2,2.09-2.38,3.8-5.66,7.53-2.39,3.4,3,.82,4.87-1.11,7.4-11.52,15-25.85,27.16-39.73,39.77-4.38,4-8.93,7.75-12.78,12.4,6.71-3.37,13.32-7,20.17-10,6.37-2.84,13-5,19.5-7.64,4.3-1.77,7.06-1.08,7.51,3.83,5-1.81,9.75-3.78,14.63-5.19s7.05.53,6.33,5.67c-.18,1.29-.65,2.55-1.26,4.87,2.36-1,4.05-1.75,5.72-2.49,8-3.56,16-7.27,24.11-10.56,1.62-.66,3.89.3,5.86.51-.25,2.28.33,5.27-.91,6.69-3.67,4.23-8.18,7.72-12.13,11.72-3.68,3.74-7,7.79-10.59,11.66-.72.78-1.68,2-2.47,1.92s-2.4-1.32-2.38-2c.07-2.78-.32-6.34,1.19-8.18,3.85-4.7,8.61-8.66,13.07-12.84a21.88,21.88,0,0,1,3.17-2.12C290.09,83.9,289.71,83.45,289.34,83Z"/><path class="cls-1" d="M331.06,92.15c6.5-2.91,12.89-6.08,19.54-8.58,2.3-.87,6.6-1.15,7.56.13a12.66,12.66,0,0,1,2.08,9c-1.43,7.59-1.13,8.44,6.76,7.68,5.73-.55,11.42-1.55,17.14-2.3a5.22,5.22,0,0,1,4,1,64,64,0,0,1-7.66,3.25c-6,1.73-12.09,4.06-18.25,4.48-8.77.59-12.95-5.54-10.78-14.13.24-.93.58-1.84,1.12-3.58-2.13.53-3.78.64-5.14,1.33-7.54,3.84-15,7.85-22.52,11.72a20.61,20.61,0,0,1-6.35,2.48c-1.27.17-3.68-1-3.92-2a7.25,7.25,0,0,1,1.05-5.31c1.34-1.9,3.5-3.21,5.31-4.77l-.69-1.08c-6.11,2.28-12.22,4.59-18.35,6.81-1.4.5-3.06,1.22-4.33.87a8.53,8.53,0,0,1-4.59-3c-.44-.65.77-3.15,1.86-4,9.31-7.44,20.51-10.63,31.78-13.47,1.37-.35,3.88,1.19,4.82,2.56.77,1.13.19,3.36-.16,5a45.16,45.16,0,0,1-1.83,5.44Z"/><path class="cls-1" d="M408.93,75.39c-2.68,3.16-4.4,4.48-6.75,7.87-3.55,5.11-2.73,9.57,2.42,13.19,7.2,5.08,14.32,7.78,22.76,7.23,15.86-1,31.81-2.24,47.4-5.1,12.17-2.24,23.94-6.84,35.73-10.84,18-6.09,35.23-13.89,50.66-25.21a7.82,7.82,0,0,0,2.94-3.72c-4.34-.18-8.71-.11-13-.59C537.52,56.71,524,55,510.46,53.35c-8.59-1-12.88-2.74-19.88,9.36-1.5,2.6-3.46,2.27-5.15.13-3.29-4.18-.75-7.36,3.39-11.41-5.32.5-9.26.42-13,1.3-15.15,3.58-30.23,7.46-45.33,11.24-1.45.36-2.86.81-4.29,1.22,10.2-4.31,20.29-8.91,30.63-12.84,11.82-4.5,24.32-4.73,36.8-4.89a12,12,0,0,0,5.6-1.77,98.53,98.53,0,0,1,43.82-13.61c10.34-.64,20.59,0,30.48,3.42,7.65,2.66,9.51,6.46,7.16,14.17-.27.9-.37,1.85-.58,2.89,6.23,1.45,10.92-1.74,15.66-4.27,17.72-9.47,35.47-18.91,53-28.72,8.76-4.9,17.09-10.56,25.6-15.89,3.29-2.07,6.4-5.5,10.65-2.5,2.2,1.56.57,8-3.51,11.44-8.8,10-17.8,16.42-28.33,22.73-10.53,7.1-21.81,10.17-33.31,13.78-11,3.46-22.57,5.63-33,10.27-7.7,3.4-14.16,9.72-20.93,15-2.85,2.23-5.09,5.22-7.61,7.87l.9,1.46c3.85-.58,7.69-1.19,11.54-1.74,4.75-.69,9.5-1.53,14.28-1.93,4.58-.38,7.11,2.9,5,7s-5.36,7.93-8.24,11.75c-1.47,1.94-3.25,3.63-5.82,6.47l25.72-.09.19,1.2a20,20,0,0,1-2.75.88c-9,1.54-18.07,2.78-27,4.68-3.08.65-6.08,2.54-8.66,4.47C552.56,124.6,541.83,133,531,141.23a19.93,19.93,0,0,1-4.57,3,30,30,0,0,1-5.67,1c-.28-2.27-1.59-5.21-.64-6.66,2.87-4.39,6-9.07,10.15-12.06,10.64-7.64,21.53-15.16,34.73-18a4.8,4.8,0,0,0,2.2-1.14c5.77-5.48,11.64-10.85,17.12-16.61,1.64-1.73,2.12-4.56,3.43-7.59-8.91-1-16,1.64-23.1,4.35-1.23.47-2.51,1.48-3.66,1.35-2.42-.28-5.75-.43-6.88-2s-1.1-5.33,0-7.15c2.29-3.76,5.64-6.87,8.09-9.71-5.34,2.76-11.25,6-17.3,8.88a263.67,263.67,0,0,1-58.73,20.29,388.73,388.73,0,0,1-43.84,7c-11.79,1.18-23.9,1.83-35.2-3.63-5.17-2.49-10.19-5.79-10-11.84C397.41,83.39,402.14,78.31,408.93,75.39ZM510.87,47l.3,1.74c4.44.66,8.86,1.44,13.31,2,8.28,1,16.55,2.09,24.86,2.66a150.22,150.22,0,0,0,20.35.12c4.28-.29,6.22-4.35,6.14-7.93,0-1.91-3.14-4-5.15-5.55-1.08-.86-2.78-1-4.24-1.32a81.27,81.27,0,0,0-40.28,2.28C521,42.62,516,44.94,510.87,47Zm96.27,0c29.21-6.13,55.25-18,75.55-40.29l-1.27-2.29C656.12,17.55,632.32,33.44,607.14,46.94Zm-55.42,74.78-.91-1.37L534.4,131l1.18,1.77Z"/><path class="cls-1" d="M729.59,89.27c-8.76,3.52-18.55,6.62-26.79,13.07-.79.62-1.54,1.87-2.28,1.85a64.21,64.21,0,0,1-7.25-.94c.48-2,.29-4.84,1.56-5.92,5.19-4.4,10.85-8.26,16.3-12.36,1.57-1.18,3.06-2.49,4.58-3.73-.17-.44-.34-.87-.5-1.31-6.24,2.08-12.57,3.92-18.68,6.3-5.26,2-10.29,4.68-15.39,7.11-3.08,1.46-6.27,2.2-8.59-.87s-.31-6,1.69-8.53A53.15,53.15,0,0,1,678,80c-2.61-5.6-2.27-7.51,2.87-10.71,9.15-5.7,19-10.44,27.58-16.83,10.49-7.78,20-16.82,29.93-25.39,1.1-.95,1.64-2.57,2.78-3.45a29.16,29.16,0,0,1,4.75-2.54c.47,1.83,1.83,4,1.25,5.43-1.52,3.61-3.23,7.58-6,10.15C728,48.82,716.75,63.16,701,72.34c-3.64,2.12-7.37,4.1-10.9,6.4-1.38.9-2.3,2.5-3.44,3.77l.72,1.22c2.87-.89,5.75-1.73,8.6-2.68,6.77-2.27,13.41-5,20.31-6.79,10.11-2.57,12.3,0,9.34,10.44,6.22-1.84,12.18-3.66,18.17-5.34,1.12-.31,3.1-.52,3.48,0,2.43,3.55,5.3,2.27,8.41,1.41,5.6-1.56,11.24-3,16.93-4.12,1.85-.37,5.18-.28,5.61.65,1,2,1.39,5.16.45,7.06-3.13,6.3-8.51,10.83-14.49,14.26-1.34.77-4.74-.91-6.38-2.38-.66-.59.33-4.11,1.52-5.45,2.12-2.39,5-4.14,7.27-6.54-9.73.89-17.79,5.54-25.86,10.37a10.89,10.89,0,0,1-7.63.93C731.75,95.23,731.11,92.18,729.59,89.27Z"/><path class="cls-1" d="M914.46,159.6c-1.38-2.61-.71-4.33,1.3-6.75,25.26-30.62,57.1-53,90.9-72.89a5.56,5.56,0,0,0,2.44-3c-1.53.47-3.07.88-4.57,1.41a80.62,80.62,0,0,1-31.26,5.06c-3.4-.16-6.86,2.31-10.41,3-2.41.45-5.43.66-7.44-.41-4-2.12-4-5.22-.64-8.39A38.15,38.15,0,0,1,974.21,68c7.24-1.44,9,.22,10.89,9.81,6.89-1.59,13.79-3,20.6-4.8,5.61-1.49,11.07-3.57,16.67-5.14,3-.84,5.08-.51,4.54,3.86a17.61,17.61,0,0,1-13.21,15.2c-9.75,2.72-17.9,8-26,13.27-14,9.22-27.76,18.82-40.87,29.22-9.86,7.82-18.54,17.13-27.75,25.76-1.57,1.47-3.19,2.88-4.79,4.32Z"/><path class="cls-1" d="M925.1,80.5c-7-.7-14.15-.76-21.22-1.45-.38,7.52-3.47,11.19-10.77,12.58-5.19,1-10.44,1.66-15.68,2.3-2.94.36-4.92-1-5-4.13-.12-3.6,2.75-4.4,5.4-4.62,3.93-.33,7.9,0,11.85-.18a30.49,30.49,0,0,0,4.75-1c0-.45,0-.89,0-1.34a28.2,28.2,0,0,0-5.26-.16c-3.62.55-6.61-1.18-6.73-4.21-.07-2.13,2.49-5.6,4.63-6.35,8.47-3,17-1,25.46,1.1a13.92,13.92,0,0,1,3.71,1.43c2.78,1.61,4.89,1,8-.21,5.57-2.29,11.8-3,17.76-4.26,1.29-.28,2.65-.28,4-.48,2.73-.43,6.28-1.81,6.54,2.42.08,1.39-3.17,3.72-5.28,4.35-4,1.19-7.65,1.74-9.12,6.8-1.17,4-12.47,9.6-16.41,8.44-1.8-.53-3.53-2.72-4.3-4.57-.29-.69,2.06-2.82,3.53-3.81,1.12-.75,2.74-.75,4.14-1.08Z"/><path class="cls-1" d="M825.37,83.94q14.25-3.8,28.51-7.62c1-.26,1.82-1.06,2.75-1.12,1.9-.12,5.32-.33,5.49.26.85,2.92,1.66,6.28-2.39,8s-8,3.72-12.06,5.59l0,1.87,20.72,2.88c-8.76,2.24-17.61,3.26-26.3,1.34-2.4-.53-4.07-4.37-6.9-7.65-5.15,1.65-11.86,3.85-18.59,5.94-6.3,2-9.29.52-11.7-5.62-2,.46-4.29,1.65-6.17,1.23a10.6,10.6,0,0,1-6-3.84c-.51-.73,1.41-4.52,2.93-5.11,7.87-3.09,15.91-5.77,24-8.21,3.67-1.11,6.43,1.86,5.89,5.81a40.35,40.35,0,0,1-1.2,4.66C824.73,82.9,825.05,83.42,825.37,83.94Z"/><path class="cls-1" d="M642,95.68l8.19,1.69c-7.17,6.51-15.23,6-19.93-.89-8,1.8-16.06,3.66-24.13,5.36-1.74.37-4,.82-5.32,0a12.94,12.94,0,0,1-5-5.44c-.45-1,1.2-4.06,2.54-4.63,8.51-3.58,17.08-7.11,25.88-9.86,5.49-1.71,7.33,3.1,9.12,7.77a42.54,42.54,0,0,1,6.51-2.49c1.68-.35,3.54.14,5.32.25-.36,1.93-.63,3.88-1.15,5.76C643.84,93.93,643.06,94.47,642,95.68ZM609.53,93.3l.51,1.94,16.05-3.77c-.19-.74-.37-1.48-.56-2.22Z"/></svg>
